<svg xmlns="http://www.w3.org/2000/svg" width="13.09" height="15" viewBox="0 0 13.09 15">
  <defs>
    <style>
      .cls-1 {
        fill-rule: evenodd;
      }
    </style>
  </defs>
  <path id="phone.svg" class="cls-1" d="M1385.72,56.78a0.552,0.552,0,1,0-.77-0.12A0.55,0.55,0,0,0,1385.72,56.78Zm-1.56,1.143a0.552,0.552,0,1,0-.77-0.12A0.55,0.55,0,0,0,1384.16,57.923Zm-1.56,1.142a0.552,0.552,0,1,0-.77-0.12A0.55,0.55,0,0,0,1382.6,59.065Zm2.59,7.3c-0.01-.012-0.01-0.023-0.02-0.036a0.053,0.053,0,0,0-.01-0.037,0.05,0.05,0,0,0-.02-0.029,0.072,0.072,0,0,0-.02-0.039v0l-0.03-.025a0.044,0.044,0,0,0-.02-0.027l-1.75-1.641a0.387,0.387,0,0,0-.55.017,0.394,0.394,0,0,0,.01.559l1.4,1.31a3.786,3.786,0,0,1-1.86.783h0a1.312,1.312,0,0,1-.6-0.144h0l-0.03-.018a16.361,16.361,0,0,1-4.71-4.087l-0.13-.169a16.282,16.282,0,0,1-2.81-5.57V57.189a0.949,0.949,0,0,1-.01-0.591,4.9,4.9,0,0,1,.93-1.5l1.05,1.7a0.4,0.4,0,0,0,.55.127,0.392,0.392,0,0,0,.12-0.543l-1.3-2.109a0.761,0.761,0,0,0-.07-0.086c-0.01-.006-0.01-0.012-0.02-0.019a0.4,0.4,0,0,0-.56.007,6.09,6.09,0,0,0-1.44,2.147,1.759,1.759,0,0,0-.01,1.083,17.181,17.181,0,0,0,2.94,5.857l0.13,0.168a17.219,17.219,0,0,0,4.96,4.293,2.033,2.033,0,0,0,1.01.259h0a5,5,0,0,0,2.72-1.214c0.01-.008.02-0.018,0.03-0.026a0.037,0.037,0,0,1,.02-0.019v0l0.03-.037c0.01-.009.01-0.017,0.02-0.026s0.01-.026.02-0.039,0.01-.02.01-0.031a0.055,0.055,0,0,0,.01-0.038,0.051,0.051,0,0,0,.01-0.036v-0.04c0-.012.01-0.024,0.01-0.034a0.067,0.067,0,0,1-.01-0.042V66.369Zm0.63-2.231a23.031,23.031,0,0,0-2.19-2,1.04,1.04,0,0,0-.79-0.253,1.206,1.206,0,0,0-.78.487c-0.11.145-.32,0.4-0.39,0.483a0.68,0.68,0,0,1-1.03.232,12.779,12.779,0,0,1-1.71-1.878,0.043,0.043,0,0,0-.02-0.028V61.171c-0.01-.008-0.01-0.016-0.02-0.024a13.172,13.172,0,0,1-1.41-2.125,0.679,0.679,0,0,1,.48-0.939c0.01-.006.03-0.012,0.05-0.022a3.157,3.157,0,0,0,.94-0.566,1.035,1.035,0,0,0,.22-1.236,23.26,23.26,0,0,0-1.66-2.736,1.159,1.159,0,0,0-1.63-.342l0.44,0.659a0.366,0.366,0,0,1,.55.147,22.338,22.338,0,0,1,1.59,2.617,0.246,0.246,0,0,1-.07.332,2.479,2.479,0,0,1-.69.4l-0.09.04a1.473,1.473,0,0,0-.87,1.92c0.01,0.014.01,0.027,0.02,0.04a13.249,13.249,0,0,0,1.51,2.308,0.011,0.011,0,0,1,.01.012c0.01,0.007.01,0.014,0.02,0.02a13.356,13.356,0,0,0,1.86,2.034c0.01,0.01.03,0.018,0.04,0.027a1.465,1.465,0,0,0,2.07-.372c0.09-.1.32-0.383,0.41-0.5,0,0,.01-0.011.01-0.014a0.463,0.463,0,0,1,.25-0.182,0.277,0.277,0,0,1,.19.081,21.141,21.141,0,0,1,2.08,1.9l0.03,0.038c0.38,0.375.27,0.6,0.23,0.675a0.4,0.4,0,0,0,.16.533,0.4,0.4,0,0,0,.19.045,0.4,0.4,0,0,0,.35-0.212A1.312,1.312,0,0,0,1385.82,64.137Zm-4.78-3.931a0.555,0.555,0,1,0-.66-0.892A0.555,0.555,0,0,0,1381.04,60.207Z" transform="translate(-1373.19 -53)"/>
</svg>

